<svg xmlns="http://www.w3.org/2000/svg" viewBox="0 0 309.44 148.88"><defs><style>.cls-1{fill:#231f20;}.cls-2{fill:none;stroke:#00a651;stroke-miterlimit:10;}</style></defs><title>Asset 1</title><g id="Layer_2" data-name="Layer 2"><g id="Layer_1-2" data-name="Layer 1"><path class="cls-1" d="M42.28,42H64.66c13,0,23.54,3.25,23.54,15.5,0,5.36-3.06,11.48-7.85,13.4v.38C86.29,73,91.07,77.61,91.07,85.83c0,12.82-11.1,18.37-24.49,18.37H42.28Zm22,24.3c5.36,0,7.85-2.49,7.85-6.31s-2.49-5.36-7.85-5.36H58.73V66.32Zm1.15,25.26c6.51,0,9.57-2.3,9.57-6.89s-3.06-6.31-9.57-6.31h-6.7v13.2Z"/><path class="cls-1" d="M100.45,74.16V42h16.46V76.08c0,11.1,2.87,15.12,9.38,15.12s9.57-4,9.57-15.12V42h15.88V74.16c0,21.24-8,31.19-25.45,31.19S100.45,95.4,100.45,74.16Z"/><path class="cls-1" d="M165.13,42h23.54c13.4,0,24.88,4.59,24.88,20.09,0,8.9-4,14.73-10,18L217,104.2H198.62L187.9,83.35h-6.31V104.2H165.13Zm22.39,28.32c6.51,0,10-2.87,10-8.23S194,55,187.52,55h-5.93V70.33Z"/><path class="cls-1" d="M225.41,42h16.46V90.43H265.4V104.2h-40Z"/><rect class="cls-1" x="0.83" width="308.21" height="31.51"/><rect class="cls-1" y="119.5" width="309.44" height="29.38"/><rect class="cls-2" x="24.96" y="7.99" width="255.22" height="131.21"/></g></g></svg>